<svg width="125" height="129" viewBox="0 0 125 129" fill="none" xmlns="http://www.w3.org/2000/svg">
<g id="body">
<path id="Ellipse 1" opacity="0.4" d="M0.749336 113.624C0.749336 121.57 28.4249 128.012 62.5644 128.012C96.7039 128.012 124.379 121.57 124.379 113.624C124.379 105.678 96.7039 99.2358 62.5644 99.2358C28.4249 99.2358 0.749336 105.678 0.749336 113.624Z" fill="black"/>
<g id="Group 7">
<path id="Rectangle 9" d="M60.4609 36.6801C60.4609 32.7005 57.711 29.2031 53.7651 28.6859C52.2415 28.4862 50.6775 28.3423 49.3342 28.3423C48.4066 28.3423 47.3736 28.4109 46.3214 28.5192C41.3349 29.0322 37.5446 33.0239 36.7601 37.975C35.9648 42.994 35.1381 49.4172 35.1381 54.4325C35.1381 60.4073 36.3113 68.3802 37.2071 73.5967C37.7727 76.8904 40.2957 79.4924 43.5997 79.9942C45.5051 80.2836 47.603 80.5227 49.3342 80.5227C50.6775 80.5227 52.2415 80.3788 53.7651 80.1791C57.711 79.6619 60.4609 76.1645 60.4609 72.1849V36.6801Z" fill="#333232"/>
<path id="Rectangle 9 (Stroke)" fill-rule="evenodd" clip-rule="evenodd" d="M64.7241 72.1851V36.6803C64.7241 30.8086 60.6244 25.2856 54.3192 24.4591C52.7133 24.2486 50.9427 24.0793 49.3343 24.0793C48.2125 24.0793 47.0245 24.1614 45.8852 24.2786C38.76 25.0117 33.6013 30.671 32.5496 37.3079C31.7488 42.3617 30.8751 49.0625 30.8751 54.4327C30.8751 60.8042 32.1081 69.0919 33.0056 74.3184C33.8648 79.322 37.7416 83.4166 42.9596 84.2091C44.9326 84.5088 47.2804 84.786 49.3343 84.786C50.9427 84.786 52.7133 84.6167 54.3192 84.4062C60.6244 83.5797 64.7241 78.0568 64.7241 72.1851ZM53.7652 28.6861C57.711 29.2033 60.461 32.7007 60.461 36.6803V72.1851C60.461 76.1647 57.711 79.662 53.7652 80.1792C52.2416 80.3789 50.6776 80.5229 49.3343 80.5229C47.6031 80.5229 45.5052 80.2838 43.5998 79.9944C40.2958 79.4925 37.7728 76.8906 37.2072 73.5969C36.3114 68.3804 35.1382 60.4075 35.1382 54.4327C35.1382 49.4173 35.9648 42.9942 36.7602 37.9752C37.5447 33.0241 41.335 29.0324 46.3215 28.5193C47.3737 28.4111 48.4066 28.3425 49.3343 28.3425C50.6776 28.3425 52.2416 28.4864 53.7652 28.6861Z" fill="black"/>
<path id="Subtract" fill-rule="evenodd" clip-rule="evenodd" d="M60.4609 71.3901V72.1851C60.4609 76.1647 57.711 79.6621 53.7651 80.1793C52.2415 80.379 50.6775 80.5229 49.3342 80.5229C47.603 80.5229 45.5051 80.2839 43.5997 79.9944C40.2957 79.4926 37.7727 76.8906 37.2071 73.597C36.3113 68.3804 35.1381 60.4076 35.1381 54.4327C35.1381 49.4174 35.9648 42.9942 36.7601 37.9752C37.0379 36.2223 37.6924 34.5896 38.6434 33.189C37.9333 37.9204 37.2696 43.5443 37.2696 48.0381C37.2696 54.0129 38.4429 61.9858 39.3387 67.2023C39.9042 70.496 42.4272 73.0979 45.7312 73.5998C47.6367 73.8892 49.7346 74.1283 51.4658 74.1283C52.8091 74.1283 54.3731 73.9843 55.8967 73.7846C57.7272 73.5447 59.3003 72.6634 60.4609 71.3901Z" fill="#171717"/>
<path id="Vector 5 (Stroke)" fill-rule="evenodd" clip-rule="evenodd" d="M45.1689 31.7838C44.1894 31.1308 42.866 31.3954 42.213 32.3749L43.9866 33.5573C42.213 32.3749 42.2125 32.3757 42.212 32.3765L42.2108 32.3782L42.2083 32.382L42.2022 32.3914L42.1856 32.4167C42.1727 32.4366 42.1562 32.4625 42.1363 32.4943C42.0964 32.5578 42.0428 32.6452 41.9776 32.756C41.8471 32.9778 41.67 33.2939 41.4621 33.7028C41.0463 34.5205 40.5072 35.7101 39.9731 37.2588C38.9042 40.3586 37.8584 44.8896 37.8584 50.743C37.8584 51.9202 38.8127 52.8745 39.9899 52.8745C41.1671 52.8745 42.1215 51.9202 42.1215 50.743C42.1215 45.4056 43.0739 41.3438 44.0034 38.6485C44.4685 37.2996 44.9286 36.291 45.2621 35.635C45.4289 35.307 45.564 35.0673 45.6521 34.9175C45.6962 34.8426 45.7285 34.7902 45.7471 34.7605L45.7646 34.733M45.765 34.7324C45.765 34.7324 45.765 34.7324 45.765 34.7323C45.7658 34.7312 45.7658 34.7311 45.7652 34.732L45.7634 34.7348L45.7619 34.737L45.7611 34.7383" fill="#4F4F4F"/>
<path id="Union" d="M108.219 33.5415C108.219 17.4371 95.9594 4.38184 80.8358 4.38184C65.7123 4.38184 53.4522 17.4371 53.4522 33.5415C53.4522 33.5415 51.1145 49.389 50.5698 59.6317C49.5175 79.4146 53.4522 110.277 53.4522 110.277C53.4522 115.363 57.3238 119.486 62.0997 119.486H67.8647C72.6405 119.486 76.5121 115.363 76.5121 110.277V96.1035C77.9205 96.3414 79.3646 96.4649 80.8358 96.4649C83.3298 96.4649 85.7459 96.1099 88.042 95.4447V107.208C88.042 112.294 89.0311 116.416 93.807 116.416H99.572C106.058 116.416 107.869 111.854 108.219 106.441C109.661 84.1872 113.984 81.8851 113.984 68.84C113.984 55.7949 108.219 33.5415 108.219 33.5415Z" fill="#4F4F4F"/>
<path id="Union (Stroke)" fill-rule="evenodd" clip-rule="evenodd" d="M53.4523 110.277C53.4523 115.363 57.3239 119.486 62.0998 119.486H67.8647C72.6406 119.486 76.5122 115.363 76.5122 110.277V96.1034C77.9012 96.338 79.325 96.4614 80.7753 96.4648C80.7955 96.4648 80.8157 96.4648 80.8359 96.4648C81.8302 96.4648 82.8121 96.4084 83.779 96.2984C85.2373 96.1325 86.6614 95.8446 88.0421 95.4446V107.208C88.0421 112.293 89.0312 116.416 93.8071 116.416H99.572C106.058 116.416 107.869 111.854 108.219 106.441C108.983 94.6471 110.557 88.4571 111.867 83.302C113.029 78.7298 113.984 74.9716 113.984 68.8399C113.984 55.7948 108.219 33.5414 108.219 33.5414C108.219 17.437 95.9594 4.38176 80.8359 4.38176C65.7124 4.38176 53.4523 17.437 53.4523 33.5414C53.4523 33.5414 51.1146 49.3889 50.5698 59.6316C49.5176 79.4146 53.4523 110.277 53.4523 110.277ZM49.1906 33.2224C49.3521 15.1614 63.2131 0.118652 80.8359 0.118652C98.3833 0.118652 112.201 15.033 112.478 32.9909C112.514 33.1319 112.556 33.3003 112.604 33.4944C112.766 34.1431 112.995 35.0799 113.269 36.2431C113.818 38.5679 114.55 41.8059 115.282 45.4613C116.728 52.6765 118.248 61.8603 118.248 68.8399C118.248 75.5133 117.179 79.7148 116.008 84.3168C115.931 84.6199 115.853 84.9247 115.775 85.2321C114.558 90.048 113.173 95.9203 112.474 106.716C112.282 109.676 111.671 113.148 109.657 115.948C107.429 119.045 103.967 120.679 99.572 120.679H93.8071C91.9881 120.679 90.2283 120.281 88.6724 119.333C87.1122 118.381 86.0426 117.051 85.3308 115.646C84.0018 113.023 83.779 109.846 83.779 107.208V100.585C82.8094 100.68 81.8277 100.728 80.8359 100.728C80.8157 100.728 80.7955 100.728 80.7753 100.728V110.277C80.7753 117.461 75.2435 123.749 67.8647 123.749H62.0998C54.8204 123.749 49.3386 117.629 49.1922 110.567L49.1775 110.449C49.1483 110.213 49.1058 109.866 49.0524 109.419C48.9454 108.524 48.7943 107.228 48.6164 105.612C48.2609 102.382 47.7981 97.8678 47.3682 92.7284C46.5131 82.5046 45.7704 69.6022 46.3127 59.4052C46.5935 54.126 47.3301 47.4797 47.9849 42.2189C48.3141 39.5744 48.626 37.2537 48.8557 35.5934C48.9705 34.763 49.065 34.097 49.1308 33.6374C49.1546 33.4716 49.1747 33.3326 49.1906 33.2224Z" fill="black"/>
<path id="Intersect" fill-rule="evenodd" clip-rule="evenodd" d="M108.152 31.4756C108.196 32.158 108.219 32.8469 108.219 33.5415C108.219 33.5415 109.901 40.033 111.448 48.0592C109.558 51.2527 106.164 53.5311 102.066 53.7492L81.1368 54.8634C74.8077 55.2003 69.0615 51.1865 67.1996 45.1281C64.5598 36.5386 70.695 27.7552 79.6683 27.2775L94.9719 26.4628C100.006 26.1949 104.747 28.1089 108.152 31.4756Z" fill="#333232"/>
<path id="Subtract_2" fill-rule="evenodd" clip-rule="evenodd" d="M107.183 111.638C106.036 114.482 103.795 116.416 99.5721 116.416H93.8072C89.0313 116.416 88.0422 112.293 88.0422 107.208V95.4445C85.7461 96.1097 83.33 96.4647 80.836 96.4647C80.8158 96.4647 80.7956 96.4647 80.7754 96.4647V91.8402C82.1838 92.0781 83.6279 92.2016 85.0991 92.2016C87.5931 92.2016 90.0092 91.8466 92.3053 91.1814V102.945C92.3053 108.03 93.2944 112.153 98.0703 112.153H103.835C105.128 112.153 106.236 111.972 107.183 111.638ZM75.5684 114.465C74.1368 117.445 71.2246 119.486 67.8648 119.486H62.0999C57.324 119.486 53.4524 115.363 53.4524 110.277C53.4524 110.277 49.5177 79.4145 50.5699 59.6315C51.1147 49.3888 53.4524 33.5413 53.4524 33.5413C53.4524 24.0367 57.7228 15.5942 64.332 10.2708C60.2081 15.3751 57.7155 22.0167 57.7155 29.2782C57.7155 29.2782 55.3778 45.1257 54.833 55.3684C53.7808 75.1514 57.7155 106.014 57.7155 106.014C57.7155 111.1 61.5871 115.222 66.363 115.222H72.1279C73.3506 115.222 74.514 114.952 75.5684 114.465Z" fill="#333232"/>
<path id="Vector 4 (Stroke)" fill-rule="evenodd" clip-rule="evenodd" d="M80.1969 8.19831C79.9503 9.3494 80.6834 10.4825 81.8345 10.7292C89.9869 12.4761 95.3055 17.9658 98.6775 24.3662C102.067 30.8 103.379 37.9736 103.538 42.5571C103.542 42.6764 103.556 42.7952 103.58 42.9121C104.086 45.3759 104.846 49.3498 105.479 53.2432C106.121 57.1942 106.601 60.8803 106.601 62.8663C106.601 68.2713 106.195 74.9695 103.707 80.816C103.246 81.8992 103.75 83.151 104.833 83.612C105.917 84.0729 107.169 83.5685 107.629 82.4852C110.47 75.8089 110.864 68.3855 110.864 62.8663C110.864 60.4826 110.322 56.464 109.687 52.5594C109.058 48.6872 108.307 44.7476 107.792 42.228C107.588 37.1276 106.149 29.4012 102.449 22.3791C98.6877 15.2396 92.4804 8.65055 82.7278 6.5607C81.5767 6.31403 80.4436 7.04722 80.1969 8.19831Z" fill="#6B6B6B"/>
<g id="Group 3">
<path id="Rectangle 3" d="M116.812 32.3462C114.464 24.7054 107.217 19.6433 99.235 20.0683L83.9314 20.883C74.9581 21.3607 68.8229 30.144 71.4626 38.7335C73.3245 44.792 79.0708 48.8058 85.3999 48.4688L106.329 47.3547C113.873 46.953 119.032 39.5681 116.812 32.3462Z" fill="#54B0D7"/>
<path id="Rectangle 3 (Stroke)" fill-rule="evenodd" clip-rule="evenodd" d="M99.0085 15.8111L83.7049 16.6258C71.9621 17.251 63.9333 28.7452 67.3878 39.9858C69.8244 47.9141 77.3441 53.1668 85.6267 52.7258L106.556 51.6117C116.87 51.0626 123.922 40.9668 120.888 31.0938C117.965 21.5831 108.944 15.2822 99.0085 15.8111ZM99.2352 20.0682C107.217 19.6433 114.464 24.7054 116.813 32.3461C119.032 39.568 113.874 46.9529 106.329 47.3546L85.4001 48.4688C79.071 48.8057 73.3247 44.7919 71.4628 38.7335C68.823 30.144 74.9583 21.3606 83.9315 20.8829L99.2352 20.0682Z" fill="black"/>
<path id="Subtract_3" fill-rule="evenodd" clip-rule="evenodd" d="M115.782 41.5427C113.907 44.8 110.479 47.1337 106.329 47.3546L85.3999 48.4688C79.0708 48.8057 73.3246 44.7919 71.4626 38.7335C69.693 32.9755 71.8668 27.1303 76.1953 23.7585C74.1823 26.9965 73.4884 31.0705 74.7273 35.1017C76.5892 41.1601 82.3355 45.1739 88.6646 44.837L109.594 43.7228C111.936 43.5981 114.049 42.8001 115.782 41.5427Z" fill="#4088A3"/>
<path id="Rectangle 2" d="M113.129 28.4285C111.984 25.0018 106.975 21.856 102.675 21.982C98.3739 22.108 98.4407 21.5857 90.3643 22.3426C82.2879 23.0996 79.9318 27.4005 81.5542 32.2588C82.6986 35.6854 86.4467 37.4803 90.7475 37.3544C95.0482 37.2284 98.4077 38.2869 104.403 38.2869C110.398 38.2869 114.751 33.2868 113.129 28.4285Z" fill="#71D8F9"/>
<path id="Vector 1 (Stroke)" fill-rule="evenodd" clip-rule="evenodd" d="M107.649 28.3787L108.447 26.402C109.538 26.8424 110.066 28.0845 109.626 29.1762C109.186 30.2675 107.944 30.7956 106.853 30.356L106.855 30.3571C106.857 30.3578 106.856 30.3573 106.855 30.3571L106.83 30.3473C106.803 30.3371 106.757 30.3199 106.693 30.2969C106.563 30.2509 106.361 30.182 106.093 30.1002C105.555 29.9366 104.757 29.7227 103.755 29.5378C101.744 29.1671 98.9515 28.9203 95.813 29.4038C94.6495 29.5831 93.561 28.7852 93.3818 27.6217C93.2025 26.4582 94.0004 25.3697 95.1639 25.1904C98.8851 24.6171 102.173 24.9111 104.528 25.3454C105.708 25.5631 106.664 25.8177 107.335 26.022C107.67 26.1242 107.936 26.2142 108.123 26.281C108.217 26.3144 108.291 26.3421 108.346 26.3627L108.412 26.3881L108.433 26.3966L108.441 26.3997L108.444 26.4009C108.444 26.4012 108.447 26.402 107.649 28.3787Z" fill="#EDFEFF"/>
</g>
<path id="Vector 3 (Stroke)" fill-rule="evenodd" clip-rule="evenodd" d="M97.7855 94.0254C97.2859 92.9595 96.0168 92.5004 94.9508 93C92.4201 94.1862 89.1979 94.7952 86.0342 95.0571C82.8989 95.3165 79.9753 95.2235 78.1325 95.0965C76.9581 95.0156 75.9404 95.9021 75.8595 97.0765C75.7786 98.251 76.6651 99.2686 77.8395 99.3496C79.8244 99.4863 82.9741 99.588 86.3859 99.3056C89.7693 99.0256 93.5679 98.3563 96.7601 96.8601C97.826 96.3605 98.2851 95.0914 97.7855 94.0254Z" fill="black"/>
<path id="Vector 6 (Stroke)" fill-rule="evenodd" clip-rule="evenodd" d="M73.1383 89.5217C71.9672 89.6415 71.1149 90.688 71.2347 91.8591C71.4298 93.7668 71.6653 96.8735 71.7337 99.9494C71.8041 103.108 71.6881 105.953 71.2908 107.498C70.9976 108.638 71.6842 109.8 72.8244 110.093C73.9645 110.386 75.1264 109.7 75.4196 108.559C75.9815 106.374 76.0654 102.979 75.9958 99.8545C75.9244 96.6468 75.6802 93.4255 75.4757 91.4253C75.3559 90.2542 74.3094 89.402 73.1383 89.5217Z" fill="#6B6B6B"/>
</g>
</g>
</svg>
