<svg width="125" height="129" viewBox="0 0 125 129" fill="none" xmlns="http://www.w3.org/2000/svg">
<g id="body">
<path id="Ellipse 1" opacity="0.4" d="M0.749336 113.624C0.749336 121.57 28.4249 128.012 62.5644 128.012C96.7039 128.012 124.379 121.57 124.379 113.624C124.379 105.678 96.7039 99.2361 62.5644 99.2361C28.4249 99.2361 0.749336 105.678 0.749336 113.624Z" fill="black"/>
<g id="Group 7">
<path id="Rectangle 9" d="M60.4609 36.6806C60.4609 32.701 57.711 29.2036 53.7651 28.6864C52.2415 28.4867 50.6775 28.3428 49.3342 28.3428C48.4066 28.3428 47.3736 28.4114 46.3214 28.5197C41.3349 29.0327 37.5446 33.0244 36.7601 37.9755C35.9648 42.9945 35.1381 49.4176 35.1381 54.433C35.1381 60.4078 36.3113 68.3807 37.2071 73.5972C37.7727 76.8909 40.2957 79.4929 43.5997 79.9947C45.5051 80.2841 47.603 80.5232 49.3342 80.5232C50.6775 80.5232 52.2415 80.3793 53.7651 80.1796C57.711 79.6624 60.4609 76.165 60.4609 72.1854V36.6806Z" fill="#740DC6"/>
<path id="Rectangle 9 (Stroke)" fill-rule="evenodd" clip-rule="evenodd" d="M64.7241 72.1853V36.6805C64.7241 30.8088 60.6244 25.2858 54.3192 24.4594C52.7133 24.2489 50.9427 24.0796 49.3343 24.0796C48.2125 24.0796 47.0245 24.1617 45.8852 24.2789C38.76 25.0119 33.6013 30.6713 32.5496 37.3082C31.7488 42.3619 30.8751 49.0627 30.8751 54.4329C30.8751 60.8044 32.1081 69.0921 33.0056 74.3186C33.8648 79.3223 37.7416 83.4168 42.9596 84.2094C44.9326 84.5091 47.2804 84.7862 49.3343 84.7862C50.9427 84.7862 52.7133 84.6169 54.3192 84.4064C60.6244 83.58 64.7241 78.057 64.7241 72.1853ZM53.7652 28.6863C57.711 29.2035 60.461 32.7009 60.461 36.6805V72.1853C60.461 76.1649 57.711 79.6623 53.7652 80.1795C52.2416 80.3792 50.6776 80.5231 49.3343 80.5231C47.6031 80.5231 45.5052 80.284 43.5998 79.9946C40.2958 79.4928 37.7728 76.8908 37.2072 73.5972C36.3114 68.3806 35.1382 60.4077 35.1382 54.4329C35.1382 49.4176 35.9648 42.9944 36.7602 37.9754C37.5447 33.0244 41.335 29.0326 46.3215 28.5196C47.3737 28.4113 48.4066 28.3427 49.3343 28.3427C50.6776 28.3427 52.2416 28.4866 53.7652 28.6863Z" fill="black"/>
<path id="Subtract" fill-rule="evenodd" clip-rule="evenodd" d="M60.4609 71.3904V72.1854C60.4609 76.165 57.711 79.6623 53.7651 80.1795C52.2415 80.3792 50.6775 80.5232 49.3342 80.5232C47.603 80.5232 45.5051 80.2841 43.5997 79.9947C40.2957 79.4928 37.7727 76.8909 37.2071 73.5972C36.3113 68.3807 35.1381 60.4078 35.1381 54.433C35.1381 49.4176 35.9648 42.9945 36.7601 37.9755C37.0379 36.2225 37.6924 34.5898 38.6434 33.1892C37.9333 37.9207 37.2696 43.5446 37.2696 48.0383C37.2696 54.0131 38.4429 61.986 39.3387 67.2026C39.9042 70.4962 42.4272 73.0982 45.7312 73.6C47.6367 73.8894 49.7346 74.1285 51.4658 74.1285C52.8091 74.1285 54.3731 73.9846 55.8967 73.7849C57.7272 73.5449 59.3003 72.6637 60.4609 71.3904Z" fill="#520490"/>
<path id="Vector 5 (Stroke)" fill-rule="evenodd" clip-rule="evenodd" d="M45.1689 31.784C44.1894 31.131 42.866 31.3957 42.213 32.3752L43.9866 33.5576C42.213 32.3752 42.2125 32.376 42.212 32.3767L42.2108 32.3785L42.2083 32.3823L42.2022 32.3916L42.1856 32.417C42.1727 32.4369 42.1562 32.4627 42.1363 32.4945C42.0964 32.5581 42.0428 32.6454 41.9776 32.7563C41.8471 32.978 41.67 33.2941 41.4621 33.703C41.0463 34.5208 40.5072 35.7103 39.9731 37.259C38.9042 40.3589 37.8584 44.8899 37.8584 50.7432C37.8584 51.9204 38.8127 52.8748 39.9899 52.8748C41.1671 52.8748 42.1215 51.9204 42.1215 50.7432C42.1215 45.4059 43.0739 41.3441 44.0034 38.6488C44.4685 37.2999 44.9286 36.2913 45.2621 35.6353C45.4289 35.3073 45.564 35.0676 45.6521 34.9178C45.6962 34.8429 45.7285 34.7904 45.7471 34.7607L45.7646 34.7332M45.765 34.7326C45.765 34.7326 45.765 34.7326 45.765 34.7326C45.7658 34.7314 45.7658 34.7313 45.7652 34.7323L45.7634 34.735L45.7619 34.7372L45.7611 34.7385" fill="#9514FB"/>
<path id="Union" d="M108.219 33.5416C108.219 17.4372 95.9594 4.38196 80.8358 4.38196C65.7123 4.38196 53.4522 17.4372 53.4522 33.5416C53.4522 33.5416 51.1145 49.3891 50.5698 59.6318C49.5175 79.4148 53.4522 110.277 53.4522 110.277C53.4522 115.363 57.3238 119.486 62.0997 119.486H67.8647C72.6405 119.486 76.5121 115.363 76.5121 110.277V96.1036C77.9205 96.3415 79.3646 96.465 80.8358 96.465C83.3298 96.465 85.7459 96.11 88.042 95.4448V107.208C88.042 112.294 89.0311 116.416 93.807 116.416H99.572C106.058 116.416 107.869 111.854 108.219 106.441C109.661 84.1873 113.984 81.8852 113.984 68.8401C113.984 55.795 108.219 33.5416 108.219 33.5416Z" fill="#9514FB"/>
<path id="Union (Stroke)" fill-rule="evenodd" clip-rule="evenodd" d="M53.4523 110.278C53.4523 115.363 57.3239 119.486 62.0998 119.486H67.8647C72.6406 119.486 76.5122 115.363 76.5122 110.278V96.1037C77.9012 96.3383 79.325 96.4617 80.7753 96.465C80.7955 96.4651 80.8157 96.4651 80.8359 96.4651C81.8302 96.4651 82.8121 96.4087 83.779 96.2986C85.2373 96.1327 86.6614 95.8449 88.0421 95.4449V107.208C88.0421 112.294 89.0312 116.416 93.8071 116.416H99.572C106.058 116.416 107.869 111.854 108.219 106.441C108.983 94.6473 110.557 88.4574 111.867 83.3022C113.029 78.73 113.984 74.9719 113.984 68.8402C113.984 55.7951 108.219 33.5416 108.219 33.5416C108.219 17.4372 95.9594 4.382 80.8359 4.382C65.7124 4.382 53.4523 17.4372 53.4523 33.5416C53.4523 33.5416 51.1146 49.3891 50.5698 59.6319C49.5176 79.4148 53.4523 110.278 53.4523 110.278ZM49.1906 33.2227C49.3521 15.1617 63.2131 0.118896 80.8359 0.118896C98.3833 0.118896 112.201 15.0333 112.478 32.9912C112.514 33.1321 112.556 33.3005 112.604 33.4946C112.766 34.1433 112.995 35.0801 113.269 36.2434C113.818 38.5681 114.55 41.8061 115.282 45.4616C116.728 52.6768 118.248 61.8605 118.248 68.8402C118.248 75.5135 117.179 79.715 116.008 84.317C115.931 84.6201 115.853 84.9249 115.775 85.2323C114.558 90.0482 113.173 95.9205 112.474 106.716C112.282 109.677 111.671 113.149 109.657 115.948C107.429 119.046 103.967 120.68 99.572 120.68H93.8071C91.9881 120.68 90.2283 120.281 88.6724 119.333C87.1122 118.382 86.0426 117.051 85.3308 115.646C84.0018 113.023 83.779 109.846 83.779 107.208V100.585C82.8094 100.68 81.8277 100.728 80.8359 100.728C80.8157 100.728 80.7955 100.728 80.7753 100.728V110.278C80.7753 117.461 75.2435 123.749 67.8647 123.749H62.0998C54.8204 123.749 49.3386 117.63 49.1922 110.567L49.1775 110.45C49.1483 110.213 49.1058 109.866 49.0524 109.419C48.9454 108.524 48.7943 107.228 48.6164 105.612C48.2609 102.382 47.7981 97.868 47.3682 92.7286C46.5131 82.5049 45.7704 69.6025 46.3127 59.4054C46.5935 54.1262 47.3301 47.48 47.9849 42.2191C48.3141 39.5747 48.626 37.254 48.8557 35.5937C48.9705 34.7632 49.065 34.0972 49.1308 33.6377C49.1546 33.4718 49.1747 33.3328 49.1906 33.2227Z" fill="black"/>
<path id="Intersect" fill-rule="evenodd" clip-rule="evenodd" d="M108.152 31.4759C108.196 32.1583 108.219 32.8472 108.219 33.5417C108.219 33.5417 109.901 40.0332 111.448 48.0594C109.558 51.2529 106.164 53.5313 102.066 53.7495L81.1368 54.8636C74.8077 55.2006 69.0615 51.1868 67.1996 45.1283C64.5598 36.5388 70.695 27.7555 79.6683 27.2778L94.9719 26.4631C100.006 26.1951 104.747 28.1092 108.152 31.4759Z" fill="#740DC6"/>
<path id="Subtract_2" fill-rule="evenodd" clip-rule="evenodd" d="M107.183 111.639C106.036 114.482 103.795 116.416 99.5721 116.416H93.8072C89.0313 116.416 88.0422 112.294 88.0422 107.208V95.4448C85.7461 96.11 83.33 96.465 80.836 96.465C80.8158 96.465 80.7956 96.465 80.7754 96.4649V91.8405C82.1838 92.0783 83.6279 92.2019 85.0991 92.2019C87.5931 92.2019 90.0092 91.8469 92.3053 91.1817V102.945C92.3053 108.031 93.2944 112.153 98.0703 112.153H103.835C105.128 112.153 106.236 111.972 107.183 111.639ZM75.5684 114.465C74.1368 117.446 71.2246 119.486 67.8648 119.486H62.0999C57.324 119.486 53.4524 115.363 53.4524 110.277C53.4524 110.277 49.5177 79.4147 50.5699 59.6318C51.1147 49.3891 53.4524 33.5416 53.4524 33.5416C53.4524 24.0369 57.7228 15.5944 64.332 10.271C60.2081 15.3753 57.7155 22.0169 57.7155 29.2785C57.7155 29.2785 55.3778 45.1259 54.833 55.3687C53.7808 75.1516 57.7155 106.014 57.7155 106.014C57.7155 111.1 61.5871 115.223 66.363 115.223H72.1279C73.3506 115.223 74.514 114.952 75.5684 114.465Z" fill="#740DC6"/>
<path id="Vector 4 (Stroke)" fill-rule="evenodd" clip-rule="evenodd" d="M80.1969 8.19843C79.9503 9.34953 80.6834 10.4826 81.8345 10.7293C89.9869 12.4762 95.3055 17.966 98.6775 24.3663C102.067 30.8001 103.379 37.9737 103.538 42.5572C103.542 42.6765 103.556 42.7953 103.58 42.9122C104.086 45.376 104.846 49.3499 105.479 53.2434C106.121 57.1943 106.601 60.8804 106.601 62.8664C106.601 68.2714 106.195 74.9696 103.707 80.8161C103.246 81.8993 103.75 83.1511 104.833 83.6121C105.917 84.0731 107.169 83.5686 107.629 82.4854C110.47 75.809 110.864 68.3857 110.864 62.8664C110.864 60.4828 110.322 56.4642 109.687 52.5595C109.058 48.6873 108.307 44.7477 107.792 42.2281C107.588 37.1277 106.149 29.4013 102.449 22.3792C98.6877 15.2398 92.4804 8.65067 82.7278 6.56082C81.5767 6.31416 80.4436 7.04734 80.1969 8.19843Z" fill="#B558FF"/>
<g id="Group 3">
<path id="Rectangle 3" d="M116.812 32.3464C114.464 24.7057 107.217 19.6436 99.235 20.0685L83.9314 20.8832C74.9581 21.3609 68.8229 30.1443 71.4626 38.7338C73.3245 44.7922 79.0708 48.806 85.3999 48.4691L106.329 47.3549C113.873 46.9533 119.032 39.5683 116.812 32.3464Z" fill="#54B0D7"/>
<path id="Rectangle 3 (Stroke)" fill-rule="evenodd" clip-rule="evenodd" d="M99.0085 15.8114L83.7049 16.6261C71.9621 17.2512 63.9333 28.7455 67.3878 39.9861C69.8244 47.9144 77.3441 53.167 85.6267 52.7261L106.556 51.6119C116.87 51.0628 123.922 40.967 120.888 31.094C117.965 21.5834 108.944 15.2824 99.0085 15.8114ZM99.2352 20.0684C107.217 19.6435 114.464 24.7056 116.813 32.3464C119.032 39.5683 113.874 46.9532 106.329 47.3548L85.4001 48.469C79.071 48.8059 73.3247 44.7921 71.4628 38.7337C68.823 30.1442 74.9583 21.3608 83.9315 20.8831L99.2352 20.0684Z" fill="black"/>
<path id="Subtract_3" fill-rule="evenodd" clip-rule="evenodd" d="M115.782 41.5429C113.907 44.8002 110.479 47.134 106.329 47.3549L85.3999 48.4691C79.0708 48.806 73.3246 44.7922 71.4626 38.7338C69.693 32.9757 71.8668 27.1306 76.1953 23.7587C74.1823 26.9967 73.4884 31.0707 74.7273 35.102C76.5892 41.1604 82.3355 45.1742 88.6646 44.8373L109.594 43.7231C111.936 43.5984 114.049 42.8003 115.782 41.5429Z" fill="#4088A3"/>
<path id="Rectangle 2" d="M113.129 28.4287C111.984 25.002 106.975 21.8562 102.675 21.9822C98.3739 22.1082 98.4407 21.5859 90.3643 22.3429C82.2879 23.0998 79.9318 27.4007 81.5542 32.259C82.6986 35.6857 86.4467 37.4806 90.7475 37.3546C95.0482 37.2286 98.4077 38.2872 104.403 38.2872C110.398 38.2872 114.751 33.287 113.129 28.4287Z" fill="#71D8F9"/>
<path id="Vector 1 (Stroke)" fill-rule="evenodd" clip-rule="evenodd" d="M107.649 28.379L108.447 26.4022C109.538 26.8426 110.066 28.0847 109.626 29.1764C109.186 30.2678 107.944 30.7958 106.853 30.3562L106.855 30.3573C106.857 30.358 106.856 30.3576 106.855 30.3573L106.83 30.3475C106.803 30.3373 106.757 30.3201 106.693 30.2971C106.563 30.2511 106.361 30.1822 106.093 30.1005C105.555 29.9368 104.757 29.7229 103.755 29.5381C101.744 29.1674 98.9515 28.9206 95.813 29.4041C94.6495 29.5833 93.561 28.7854 93.3818 27.6219C93.2025 26.4584 94.0004 25.3699 95.1639 25.1907C98.8851 24.6174 102.173 24.9114 104.528 25.3457C105.708 25.5633 106.664 25.818 107.335 26.0223C107.67 26.1245 107.936 26.2144 108.123 26.2812C108.217 26.3146 108.291 26.3423 108.346 26.3629L108.412 26.3884L108.433 26.3968L108.441 26.3999L108.444 26.4012C108.444 26.4014 108.447 26.4022 107.649 28.379Z" fill="#EDFEFF"/>
</g>
<path id="Vector 3 (Stroke)" fill-rule="evenodd" clip-rule="evenodd" d="M97.7855 94.0257C97.2859 92.9597 96.0168 92.5006 94.9508 93.0002C92.4201 94.1864 89.1979 94.7955 86.0342 95.0573C82.8989 95.3168 79.9753 95.2238 78.1325 95.0968C76.9581 95.0159 75.9404 95.9023 75.8595 97.0768C75.7786 98.2512 76.6651 99.2689 77.8395 99.3498C79.8244 99.4866 82.9741 99.5882 86.3859 99.3059C89.7693 99.0259 93.5679 98.3566 96.7601 96.8604C97.826 96.3607 98.2851 95.0916 97.7855 94.0257Z" fill="black"/>
<path id="Vector 6 (Stroke)" fill-rule="evenodd" clip-rule="evenodd" d="M73.1383 89.522C71.9672 89.6417 71.1149 90.6882 71.2347 91.8593C71.4298 93.767 71.6653 96.8737 71.7337 99.9497C71.8041 103.108 71.6881 105.953 71.2908 107.498C70.9976 108.638 71.6842 109.8 72.8244 110.093C73.9645 110.386 75.1264 109.7 75.4196 108.56C75.9815 106.374 76.0654 102.98 75.9958 99.8548C75.9244 96.6471 75.6802 93.4257 75.4757 91.4256C75.3559 90.2545 74.3094 89.4022 73.1383 89.522Z" fill="#B558FF"/>
</g>
</g>
</svg>
