<svg width="125" height="129" viewBox="0 0 125 129" fill="none" xmlns="http://www.w3.org/2000/svg">
<g id="body">
<path id="Ellipse 1" opacity="0.4" d="M0.749336 113.624C0.749336 121.57 28.4249 128.012 62.5644 128.012C96.7039 128.012 124.379 121.57 124.379 113.624C124.379 105.678 96.7039 99.2361 62.5644 99.2361C28.4249 99.2361 0.749336 105.678 0.749336 113.624Z" fill="black"/>
<g id="Group 7">
<path id="Rectangle 9" d="M60.4614 36.6805C60.4614 32.7009 57.7115 29.2035 53.7656 28.6863C52.242 28.4866 50.678 28.3427 49.3347 28.3427C48.407 28.3427 47.3741 28.4113 46.3219 28.5195C41.3354 29.0326 37.5451 33.0243 36.7606 37.9754C35.9652 42.9944 35.1386 49.4175 35.1386 54.4329C35.1386 60.4077 36.3118 68.3806 37.2076 73.5971C37.7732 76.8908 40.2962 79.4927 43.6002 79.9946C45.5056 80.284 47.6035 80.5231 49.3347 80.5231C50.678 80.5231 52.242 80.3791 53.7656 80.1794C57.7115 79.6622 60.4614 76.1649 60.4614 72.1853V36.6805Z" fill="#CA0C0C"/>
<path id="Rectangle 9 (Stroke)" fill-rule="evenodd" clip-rule="evenodd" d="M64.7246 72.1853V36.6805C64.7246 30.8088 60.6249 25.2858 54.3197 24.4594C52.7138 24.2489 50.9432 24.0796 49.3348 24.0796C48.213 24.0796 47.025 24.1617 45.8856 24.2789C38.7605 25.0119 33.6018 30.6713 32.5501 37.3082C31.7493 42.3619 30.8755 49.0627 30.8755 54.4329C30.8755 60.8044 32.1086 69.0921 33.006 74.3186C33.8653 79.3223 37.7421 83.4168 42.96 84.2094C44.933 84.5091 47.2809 84.7862 49.3348 84.7862C50.9432 84.7862 52.7138 84.6169 54.3197 84.4064C60.6249 83.58 64.7246 78.057 64.7246 72.1853ZM53.7657 28.6863C57.7115 29.2035 60.4615 32.7009 60.4615 36.6805V72.1853C60.4615 76.1649 57.7115 79.6623 53.7657 80.1795C52.2421 80.3792 50.6781 80.5231 49.3348 80.5231C47.6036 80.5231 45.5057 80.284 43.6002 79.9946C40.2962 79.4928 37.7732 76.8908 37.2077 73.5972C36.3119 68.3806 35.1387 60.4078 35.1387 54.4329C35.1387 49.4176 35.9653 42.9944 36.7606 37.9754C37.5452 33.0244 41.3354 29.0326 46.3219 28.5196C47.3742 28.4113 48.4071 28.3427 49.3348 28.3427C50.6781 28.3427 52.2421 28.4866 53.7657 28.6863Z" fill="black"/>
<path id="Subtract" fill-rule="evenodd" clip-rule="evenodd" d="M60.4614 71.3904V72.1854C60.4614 76.165 57.7115 79.6623 53.7656 80.1795C52.242 80.3792 50.678 80.5232 49.3347 80.5232C47.6035 80.5232 45.5056 80.2841 43.6002 79.9947C40.2962 79.4928 37.7732 76.8909 37.2076 73.5972C36.3118 68.3807 35.1386 60.4078 35.1386 54.433C35.1386 49.4176 35.9652 42.9945 36.7606 37.9755C37.0383 36.2225 37.6929 34.5898 38.6439 33.1892C37.9338 37.9207 37.2701 43.5446 37.2701 48.0383C37.2701 54.0132 38.4434 61.986 39.3391 67.2026C39.9047 70.4962 42.4277 73.0982 45.7317 73.6C47.6372 73.8894 49.7351 74.1285 51.4663 74.1285C52.8095 74.1285 54.3736 73.9846 55.8972 73.7849C57.7277 73.545 59.3008 72.6637 60.4614 71.3904Z" fill="#9D0404"/>
<path id="Vector 5 (Stroke)" fill-rule="evenodd" clip-rule="evenodd" d="M45.1689 31.784C44.1894 31.131 42.866 31.3957 42.213 32.3752L43.9866 33.5576C42.213 32.3752 42.2125 32.376 42.212 32.3767L42.2108 32.3785L42.2083 32.3823L42.2022 32.3916L42.1856 32.417C42.1727 32.4369 42.1562 32.4627 42.1363 32.4945C42.0964 32.5581 42.0428 32.6454 41.9776 32.7563C41.8471 32.978 41.67 33.2941 41.4621 33.703C41.0463 34.5208 40.5072 35.7103 39.9731 37.259C38.9042 40.3589 37.8584 44.8899 37.8584 50.7432C37.8584 51.9204 38.8127 52.8748 39.9899 52.8748C41.1671 52.8748 42.1215 51.9204 42.1215 50.7432C42.1215 45.4059 43.0739 41.3441 44.0034 38.6488C44.4685 37.2999 44.9286 36.2913 45.2621 35.6353C45.4289 35.3073 45.564 35.0676 45.6521 34.9178C45.6962 34.8429 45.7285 34.7904 45.7471 34.7607L45.7646 34.7332M45.765 34.7326C45.765 34.7326 45.765 34.7326 45.765 34.7326C45.7658 34.7314 45.7658 34.7313 45.7652 34.7323L45.7634 34.735L45.7619 34.7372L45.7611 34.7385" fill="#FB1414"/>
<path id="Union" d="M108.219 33.5416C108.219 17.4372 95.9594 4.38196 80.8358 4.38196C65.7123 4.38196 53.4522 17.4372 53.4522 33.5416C53.4522 33.5416 51.1145 49.3891 50.5697 59.6318C49.5175 79.4148 53.4522 110.277 53.4522 110.277C53.4522 115.363 57.3238 119.486 62.0997 119.486H67.8647C72.6405 119.486 76.5121 115.363 76.5121 110.277V96.1036C77.9205 96.3415 79.3646 96.465 80.8358 96.465C83.3298 96.465 85.7459 96.11 88.042 95.4448V107.208C88.042 112.294 89.0311 116.416 93.807 116.416H99.572C106.058 116.416 107.869 111.854 108.219 106.441C109.661 84.1873 113.984 81.8852 113.984 68.8401C113.984 55.795 108.219 33.5416 108.219 33.5416Z" fill="#FB1414"/>
<path id="Union (Stroke)" fill-rule="evenodd" clip-rule="evenodd" d="M53.4523 110.278C53.4523 115.363 57.3239 119.486 62.0998 119.486H67.8647C72.6406 119.486 76.5122 115.363 76.5122 110.278V96.1036C77.9012 96.3383 79.325 96.4617 80.7753 96.465C80.7955 96.4651 80.8157 96.4651 80.8359 96.4651C81.8302 96.4651 82.8121 96.4086 83.779 96.2986C85.2373 96.1327 86.6614 95.8449 88.0421 95.4449V107.208C88.0421 112.294 89.0312 116.416 93.8071 116.416H99.572C106.058 116.416 107.869 111.854 108.219 106.441C108.983 94.6473 110.557 88.4574 111.867 83.3022C113.029 78.73 113.984 74.9719 113.984 68.8402C113.984 55.7951 108.219 33.5416 108.219 33.5416C108.219 17.4372 95.9594 4.382 80.8359 4.382C65.7124 4.382 53.4523 17.4372 53.4523 33.5416C53.4523 33.5416 51.1146 49.3891 50.5698 59.6319C49.5176 79.4148 53.4523 110.278 53.4523 110.278ZM49.1906 33.2227C49.3521 15.1617 63.2131 0.118896 80.8359 0.118896C98.3833 0.118896 112.201 15.0333 112.478 32.9912C112.514 33.1321 112.556 33.3005 112.604 33.4946C112.766 34.1433 112.995 35.0801 113.269 36.2434C113.818 38.5681 114.55 41.8061 115.282 45.4616C116.728 52.6768 118.248 61.8605 118.248 68.8402C118.248 75.5135 117.179 79.715 116.008 84.317C115.931 84.6201 115.853 84.9249 115.775 85.2323C114.558 90.0482 113.173 95.9205 112.474 106.716C112.282 109.677 111.671 113.149 109.657 115.948C107.429 119.046 103.967 120.68 99.572 120.68H93.8071C91.9881 120.68 90.2282 120.281 88.6724 119.333C87.1121 118.382 86.0426 117.051 85.3308 115.646C84.0018 113.023 83.779 109.846 83.779 107.208V100.585C82.8094 100.68 81.8276 100.728 80.8359 100.728C80.8157 100.728 80.7955 100.728 80.7753 100.728V110.278C80.7753 117.461 75.2434 123.749 67.8647 123.749H62.0998C54.8204 123.749 49.3386 117.63 49.1922 110.567L49.1775 110.45C49.1483 110.213 49.1058 109.866 49.0523 109.419C48.9454 108.524 48.7942 107.228 48.6164 105.612C48.2609 102.382 47.7981 97.868 47.3682 92.7286C46.5131 82.5048 45.7704 69.6025 46.3127 59.4054C46.5935 54.1262 47.3301 47.4799 47.9849 42.2191C48.3141 39.5747 48.626 37.254 48.8556 35.5937C48.9705 34.7632 49.0649 34.0972 49.1308 33.6377C49.1546 33.4718 49.1747 33.3328 49.1906 33.2227Z" fill="black"/>
<path id="Intersect" fill-rule="evenodd" clip-rule="evenodd" d="M108.152 31.4757C108.197 32.1581 108.22 32.847 108.22 33.5416C108.22 33.5416 109.901 40.0331 111.448 48.0593C109.558 51.2528 106.164 53.5312 102.066 53.7494L81.1373 54.8635C74.8082 55.2005 69.062 51.1867 67.2 45.1282C64.5603 36.5387 70.6955 27.7554 79.6688 27.2777L94.9724 26.463C100.006 26.195 104.747 28.109 108.152 31.4757Z" fill="#C30A0A"/>
<path id="Subtract_2" fill-rule="evenodd" clip-rule="evenodd" d="M107.183 111.639C106.036 114.482 103.795 116.416 99.5721 116.416H93.8072C89.0313 116.416 88.0422 112.294 88.0422 107.208V95.4448C85.7461 96.11 83.33 96.465 80.836 96.465C80.8158 96.465 80.7956 96.465 80.7754 96.4649V91.8405C82.1837 92.0783 83.6279 92.2019 85.0991 92.2019C87.5931 92.2019 90.0092 91.8469 92.3053 91.1817V102.945C92.3053 108.031 93.2944 112.153 98.0703 112.153H103.835C105.128 112.153 106.236 111.972 107.183 111.639ZM75.5684 114.465C74.1368 117.446 71.2245 119.486 67.8648 119.486H62.0999C57.324 119.486 53.4524 115.363 53.4524 110.277C53.4524 110.277 49.5177 79.4147 50.5699 59.6318C51.1147 49.3891 53.4524 33.5416 53.4524 33.5416C53.4524 24.0369 57.7228 15.5944 64.332 10.271C60.2081 15.3753 57.7155 22.0169 57.7155 29.2785C57.7155 29.2785 55.3778 45.1259 54.833 55.3687C53.7808 75.1516 57.7155 106.014 57.7155 106.014C57.7155 111.1 61.5871 115.223 66.363 115.223H72.1279C73.3506 115.223 74.514 114.952 75.5684 114.465Z" fill="#C30A0A"/>
<path id="Vector 4 (Stroke)" fill-rule="evenodd" clip-rule="evenodd" d="M80.1969 8.19856C79.9502 9.34965 80.6834 10.4828 81.8345 10.7294C89.9869 12.4764 95.3055 17.9661 98.6775 24.3664C102.067 30.8002 103.379 37.9739 103.538 42.5573C103.542 42.6767 103.556 42.7954 103.58 42.9124C104.086 45.3761 104.846 49.35 105.479 53.2435C106.121 57.1945 106.601 60.8806 106.601 62.8666C106.601 68.2715 106.195 74.9697 103.707 80.8162C103.246 81.8995 103.75 83.1513 104.833 83.6122C105.917 84.0732 107.169 83.5687 107.629 82.4855C110.47 75.8091 110.864 68.3858 110.864 62.8666C110.864 60.4829 110.322 56.4643 109.687 52.5596C109.058 48.6874 108.307 44.7478 107.792 42.2282C107.588 37.1279 106.149 29.4014 102.449 22.3793C98.6877 15.2399 92.4804 8.65079 82.7278 6.56094C81.5767 6.31428 80.4436 7.04746 80.1969 8.19856Z" fill="#FF5151"/>
<g id="Group 3">
<path id="Rectangle 3" d="M116.813 32.3462C114.465 24.7054 107.218 19.6433 99.2355 20.0683L83.9318 20.883C74.9586 21.3607 68.8233 30.144 71.4631 38.7335C73.325 44.792 79.0713 48.8058 85.4004 48.4688L106.329 47.3547C113.874 46.953 119.032 39.5681 116.813 32.3462Z" fill="#54B0D7"/>
<path id="Rectangle 3 (Stroke)" fill-rule="evenodd" clip-rule="evenodd" d="M99.0085 15.8112L83.7049 16.6259C71.9621 17.2511 63.9333 28.7453 67.3878 39.9859C69.8244 47.9143 77.3441 53.1669 85.6267 52.726L106.556 51.6118C116.87 51.0627 123.922 40.9669 120.888 31.0939C117.965 21.5832 108.944 15.2823 99.0085 15.8112ZM99.2352 20.0683C107.217 19.6434 114.464 24.7055 116.813 32.3462C119.032 39.5682 113.874 46.9531 106.329 47.3547L85.4001 48.4689C79.071 48.8058 73.3247 44.792 71.4628 38.7336C68.823 30.1441 74.9582 21.3607 83.9315 20.883L99.2352 20.0683Z" fill="black"/>
<path id="Subtract_3" fill-rule="evenodd" clip-rule="evenodd" d="M115.782 41.5427C113.907 44.8 110.479 47.1337 106.329 47.3546L85.3999 48.4688C79.0708 48.8057 73.3246 44.7919 71.4626 38.7335C69.693 32.9755 71.8667 27.1303 76.1953 23.7585C74.1823 26.9965 73.4884 31.0705 74.7273 35.1017C76.5892 41.1601 82.3355 45.1739 88.6646 44.837L109.594 43.7228C111.936 43.5981 114.049 42.8001 115.782 41.5427Z" fill="#4088A3"/>
<path id="Rectangle 2" d="M113.129 28.4285C111.984 25.0018 106.975 21.856 102.675 21.982C98.3739 22.108 98.4407 21.5857 90.3643 22.3426C82.2879 23.0996 79.9318 27.4005 81.5542 32.2588C82.6986 35.6854 86.4467 37.4803 90.7475 37.3544C95.0482 37.2284 98.4077 38.2869 104.403 38.2869C110.398 38.2869 114.751 33.2868 113.129 28.4285Z" fill="#71D8F9"/>
<path id="Vector 1 (Stroke)" fill-rule="evenodd" clip-rule="evenodd" d="M107.649 28.3789L108.447 26.4021C109.538 26.8425 110.066 28.0846 109.626 29.1763C109.186 30.2677 107.944 30.7957 106.853 30.3561L106.855 30.3572C106.857 30.3579 106.856 30.3574 106.855 30.3572L106.83 30.3474C106.803 30.3372 106.757 30.32 106.693 30.297C106.563 30.251 106.361 30.1821 106.093 30.1004C105.555 29.9367 104.757 29.7228 103.755 29.538C101.744 29.1673 98.9515 28.9204 95.813 29.4039C94.6495 29.5832 93.561 28.7853 93.3818 27.6218C93.2025 26.4583 94.0004 25.3698 95.1639 25.1905C98.8851 24.6173 102.173 24.9112 104.528 25.3455C105.708 25.5632 106.664 25.8179 107.335 26.0221C107.67 26.1244 107.936 26.2143 108.123 26.2811C108.217 26.3145 108.291 26.3422 108.346 26.3628L108.412 26.3882L108.433 26.3967L108.441 26.3998L108.444 26.401C108.444 26.4013 108.447 26.4021 107.649 28.3789Z" fill="#EDFEFF"/>
</g>
<path id="Vector 3 (Stroke)" fill-rule="evenodd" clip-rule="evenodd" d="M97.7855 94.0257C97.2859 92.9597 96.0168 92.5006 94.9508 93.0002C92.4201 94.1864 89.1979 94.7955 86.0342 95.0573C82.8989 95.3168 79.9753 95.2238 78.1325 95.0968C76.9581 95.0159 75.9404 95.9023 75.8595 97.0768C75.7786 98.2512 76.6651 99.2689 77.8395 99.3498C79.8244 99.4866 82.9741 99.5882 86.3859 99.3059C89.7693 99.0259 93.5679 98.3566 96.7601 96.8604C97.826 96.3607 98.2851 95.0916 97.7855 94.0257Z" fill="black"/>
<path id="Vector 6 (Stroke)" fill-rule="evenodd" clip-rule="evenodd" d="M73.1383 89.522C71.9672 89.6417 71.1149 90.6882 71.2347 91.8593C71.4298 93.767 71.6653 96.8737 71.7337 99.9497C71.8041 103.108 71.6881 105.953 71.2908 107.498C70.9976 108.638 71.6842 109.8 72.8243 110.093C73.9645 110.386 75.1264 109.7 75.4196 108.56C75.9815 106.374 76.0654 102.98 75.9958 99.8548C75.9244 96.6471 75.6802 93.4258 75.4757 91.4256C75.3559 90.2545 74.3094 89.4022 73.1383 89.522Z" fill="#FF5151"/>
</g>
</g>
</svg>
